<svg xmlns="http://www.w3.org/2000/svg" fill="none" viewBox="0 0 40 40" width="40px" height="40px" class="overview-card__header__icon"><path fill="#FFF5E7" d="M26 0H14C6 0 0 6 0 14v12c0 8 6 14 14 14h12c8 0 14-6 14-14V14c0-8-6-14-14-14Z"></path><path fill="url(#a)" d="M25 8H15c-2 0-4 2-4 4v15c0 2 2 4 4 4h10c2 0 4-2 4-4V12c0-2-2-4-4-4Z"></path><path fill="url(#b)" d="M30 26v2a3 3 0 0 1-3 3H14a3 3 0 0 0 2-3v-2a2 2 0 0 1 2-1h10a1 1 0 0 1 2 1Z"></path><path fill="url(#c)" d="M29 28v1l-1 2H14a3 3 0 0 0 2-3v-2h11a1 1 0 0 1 2 2Z" opacity=".3"></path><path fill="#fff" d="M24 14h-8l-1 1 1 1h8l1-1-1-1Zm-3 4h-5l-1 2 1 1h5l1-1-1-2Z"></path><path fill="#fff" d="M23 25c7-6 11-13 9-16-3-2-10 1-17 6-6 6-10 13-8 16 2 2 10 0 16-6Z" opacity=".4" style="mix-blend-mode: overlay;"></path><defs><linearGradient id="a" x1="19.9" x2="19.9" y1="16.7" y2="43.7" gradientUnits="userSpaceOnUse"><stop stop-color="#232345"></stop><stop offset=".2" stop-color="#3F4265"></stop><stop offset=".8" stop-color="#8691B8"></stop><stop offset="1" stop-color="#A2B0D9"></stop></linearGradient><linearGradient id="b" x1="13.7" x2="29.6" y1="28" y2="28" gradientUnits="userSpaceOnUse"><stop stop-color="#FF5708"></stop><stop offset="1" stop-color="#FD9808"></stop></linearGradient><linearGradient id="c" x1="13.7" x2="28.6" y1="28.5" y2="28.5" gradientUnits="userSpaceOnUse"><stop stop-color="#FDE7DD" stop-opacity="0"></stop><stop offset=".1" stop-color="#FDE3D1" stop-opacity=".1"></stop><stop offset=".6" stop-color="#FED5A3" stop-opacity=".6"></stop><stop offset=".9" stop-color="#FFCC85" stop-opacity=".9"></stop><stop offset="1" stop-color="#FFC97A"></stop></linearGradient></defs></svg>