<?xml version="1.0" encoding="UTF-8"?>
<svg id="Layer_5" data-name="Layer 5" xmlns="http://www.w3.org/2000/svg" viewBox="0 0 50 50">
  <defs>
    <style>
      .cls-1 {
        fill: #ff5805;
      }

      .cls-2 {
        fill: #ffe9d6;
      }

      .cls-3 {
        fill: #ff9800;
      }

      .cls-4 {
        fill: #2d375e;
      }
    </style>
  </defs>
  <circle class="cls-2" cx="25" cy="25" r="25"/>
  <g>
    <path class="cls-3" d="m36.67,25.05v9.63c0,2.18-1.81,3.95-4.04,3.95h-15.25c-2.24,0-4.04-1.77-4.04-3.95v-9.63c.08.02.18.02.27.02h22.79c.1,0,.19,0,.27-.02Z"/>
    <path class="cls-1" d="m36.67,23.05v1.99c-.08.02-.18.02-.27.02H13.61c-.1,0-.19,0-.27-.02v-1.99c0-2.18,1.81-3.95,4.04-3.95h15.25c2.24,0,4.04,1.77,4.04,3.95Z"/>
    <path class="cls-4" d="m36.67,25.05v-1.99c0-2.18-1.81-3.95-4.04-3.95h-15.25c-2.24,0-4.04,1.77-4.04,3.95v1.99c-1.94-.15-3.31-2.03-2.74-3.89l2.1-7.16c.37-1.31,1.61-2.22,3.01-2.22h18.59c1.4,0,2.64.91,3.01,2.22l2.1,7.16c.56,1.86-.8,3.74-2.74,3.89Z"/>
    <rect class="cls-4" x="17.22" y="28.86" width="15.56" height="3.8" rx="1.9" ry="1.9"/>
  </g>
</svg>