<svg viewBox="0 0 12 12" fill="none" xmlns="http://www.w3.org/2000/svg" width="15px" height="15px"><path fill-rule="evenodd" clip-rule="evenodd" d="M5.00995 5.99844L0.604928 1.59341C0.331561 1.32004 0.331561 0.87683 0.604928 0.603463C0.878294 0.330096 1.32151 0.330096 1.59488 0.603463L5.9999 5.00849L10.4049 0.603463C10.6783 0.330096 11.1215 0.330096 11.3949 0.603463C11.6682 0.87683 11.6682 1.32004 11.3949 1.59341L6.98985 5.99844L11.3949 10.4035C11.6682 10.6768 11.6682 11.12 11.3949 11.3934C11.1215 11.6668 10.6783 11.6668 10.4049 11.3934L5.9999 6.98838L1.59488 11.3934C1.32151 11.6668 0.878294 11.6668 0.604928 11.3934C0.331561 11.12 0.331561 10.6768 0.604928 10.4035L5.00995 5.99844Z" fill="currentColor"></path></svg>