<svg data-v-8dc8733e="" viewBox="0 0 24 19" fill="none" xmlns="http://www.w3.org/2000/svg" width="18px" height="20px"><path d="M23.9064 9.89227C21.8787 5.09766 17.2052 2 12.0003 2C6.79479 2 2.12132 5.09794 0.0935876 9.89283L0 10.1146L0.0935876 10.3363C2.12104 15.1301 6.79451 18.2275 11.9997 18.2275C17.2049 18.2275 21.8787 15.1301 23.9064 10.3358L24 10.114L23.9064 9.89227ZM11.9997 17.0895C7.33355 17.0895 3.13588 14.3597 1.23828 10.1146C3.13617 5.86857 7.33383 3.13823 12.0003 3.13823C16.6662 3.13823 20.8638 5.86857 22.7617 10.114C20.8636 14.3592 16.6662 17.0895 11.9997 17.0895ZM12.0003 6.29912C9.89667 6.29912 8.1854 8.01068 8.1854 10.1146C8.1854 12.2176 9.89667 13.9286 12.0003 13.9286C14.1036 13.9286 15.8146 12.2176 15.8146 10.1146C15.8146 8.01068 14.1036 6.29912 12.0003 6.29912ZM12.0003 12.7904C10.5242 12.7904 9.32362 11.5901 9.32362 10.1146C9.32362 8.63825 10.5242 7.43735 12.0003 7.43735C13.4758 7.43735 14.6764 8.63825 14.6764 10.1146C14.6764 11.5901 13.4758 12.7904 12.0003 12.7904Z" fill="currentColor"></path><line x1="3.35355" y1="0.646447" x2="21.2001" y2="18.493" stroke="currentColor"></line></svg>