<?xml version="1.0" encoding="UTF-8"?>
<!DOCTYPE svg PUBLIC "-//W3C//DTD SVG 1.1//EN" "http://www.w3.org/Graphics/SVG/1.1/DTD/svg11.dtd">
<svg xmlns="http://www.w3.org/2000/svg" version="1.1" width="1636px" height="1449px" style="shape-rendering:geometricPrecision; text-rendering:geometricPrecision; image-rendering:optimizeQuality; fill-rule:evenodd; clip-rule:evenodd" xmlns:xlink="http://www.w3.org/1999/xlink">
<g><path style="opacity:0.989" fill="#f4aeca" d="M 816.5,429.5 C 793.273,447.718 770.606,466.718 748.5,486.5C 696.353,447.414 639.353,416.581 577.5,394C 550.896,384.679 523.563,378.679 495.5,376C 471.876,373.495 448.876,376.162 426.5,384C 415.937,388.438 406.604,394.605 398.5,402.5C 392.61,404.986 386.61,405.153 380.5,403C 356.938,393.445 341.938,376.445 335.5,352C 335.934,348.767 336.601,345.6 337.5,342.5C 360.859,318.979 388.859,303.479 421.5,296C 461.136,287.717 500.803,287.717 540.5,296C 596.33,307.61 649.33,326.943 699.5,354C 740.569,376.186 779.569,401.353 816.5,429.5 Z"/></g>
<g><path style="opacity:0.991" fill="#fe9a00" d="M 1295.5,342.5 C 1298.17,349.197 1298,355.864 1295,362.5C 1285.63,382.205 1270.8,396.038 1250.5,404C 1244.92,404.996 1239.59,404.496 1234.5,402.5C 1219.55,388.693 1201.88,380.193 1181.5,377C 1152.89,373.44 1124.56,375.107 1096.5,382C 1041.41,396.05 989.739,418.05 941.5,448C 922.049,460.305 903.049,473.138 884.5,486.5C 860.022,502.649 837.356,520.983 816.5,541.5C 734.937,612.194 668.104,694.528 616,788.5C 602.981,813.074 591.814,838.407 582.5,864.5C 569.571,896.477 562.905,929.81 562.5,964.5C 561.397,988.156 566.231,1010.49 577,1031.5C 580.934,1037.04 585.101,1042.38 589.5,1047.5C 591.967,1053.33 592.134,1059.33 590,1065.5C 580.283,1089.73 562.783,1104.73 537.5,1110.5C 534.664,1110.41 531.997,1109.74 529.5,1108.5C 503.631,1082.43 487.464,1051.1 481,1014.5C 474.965,971.825 476.799,929.492 486.5,887.5C 491.191,871.583 496.024,855.583 501,839.5C 506.745,824.092 512.579,808.759 518.5,793.5C 550.706,723.373 591.206,658.706 640,599.5C 673.594,559.405 709.761,521.738 748.5,486.5C 770.606,466.718 793.273,447.718 816.5,429.5C 878.482,381.324 946.482,343.157 1020.5,315C 1071.12,295.731 1123.45,287.397 1177.5,290C 1215.69,292.613 1250.02,305.28 1280.5,328C 1286,332.337 1291,337.17 1295.5,342.5 Z"/></g>
<g><path style="opacity:0.989" fill="#009a46" d="M 337.5,342.5 C 336.601,345.6 335.934,348.767 335.5,352C 341.938,376.445 356.938,393.445 380.5,403C 386.61,405.153 392.61,404.986 398.5,402.5C 382.757,421.88 374.591,444.213 374,469.5C 373.252,503.349 378.252,536.349 389,568.5C 409.583,628.331 437.916,683.998 474,735.5C 487.931,755.588 502.764,774.922 518.5,793.5C 512.579,808.759 506.745,824.092 501,839.5C 496.024,855.583 491.191,871.583 486.5,887.5C 420.156,816.581 366.989,736.581 327,647.5C 306.031,599.956 293.364,550.289 289,498.5C 284.514,450.455 294.514,405.788 319,364.5C 324.279,356.39 330.446,349.057 337.5,342.5 Z"/></g>
<g><path style="opacity:0.988" fill="#fe5805" d="M 1295.5,342.5 C 1315.7,362.602 1329.53,386.602 1337,414.5C 1347.64,457.977 1348.31,501.644 1339,545.5C 1326.71,602.039 1306.71,655.706 1279,706.5C 1242.66,772.658 1198.83,833.325 1147.5,888.5C 1143,872.539 1138.17,856.539 1133,840.5C 1127.05,824.819 1121.22,809.153 1115.5,793.5C 1160.4,741.003 1197.23,683.003 1226,619.5C 1240.36,587.081 1250.69,553.415 1257,518.5C 1262.86,488.704 1261.2,459.371 1252,430.5C 1247.92,419.994 1242.09,410.66 1234.5,402.5C 1239.59,404.496 1244.92,404.996 1250.5,404C 1270.8,396.038 1285.63,382.205 1295,362.5C 1298,355.864 1298.17,349.197 1295.5,342.5 Z"/></g>
<g><path style="opacity:0.99" fill="#f4aeca" d="M 884.5,486.5 C 982.55,573.187 1059.55,675.521 1115.5,793.5C 1121.22,809.153 1127.05,824.819 1133,840.5C 1138.17,856.539 1143,872.539 1147.5,888.5C 1157.15,929.489 1158.98,970.822 1153,1012.5C 1146.74,1050.03 1130.24,1082.03 1103.5,1108.5C 1096.79,1111.26 1090.12,1111.09 1083.5,1108C 1060.77,1097.79 1046.77,1080.62 1041.5,1056.5C 1041.45,1053.31 1042.12,1050.31 1043.5,1047.5C 1056.13,1033.91 1064.29,1017.91 1068,999.5C 1069.87,987.901 1071.04,976.235 1071.5,964.5C 1070.06,930.835 1063.56,898.168 1052,866.5C 1051.62,865.944 1051.12,865.611 1050.5,865.5C 1034.45,820.736 1013.62,778.403 988,738.5C 940.494,664.8 883.328,599.134 816.5,541.5C 837.356,520.983 860.022,502.649 884.5,486.5 Z"/></g>
<g><path style="opacity:0.988" fill="#029945" d="M 582.5,864.5 C 636.854,918.811 696.854,965.644 762.5,1005C 780.577,1015.04 798.911,1024.54 817.5,1033.5C 781.872,1051.6 744.206,1063.93 704.5,1070.5C 680.875,1056.01 657.875,1040.51 635.5,1024C 610.422,1005.09 586.089,985.256 562.5,964.5C 562.905,929.81 569.571,896.477 582.5,864.5 Z"/></g>
<g><path style="opacity:0.991" fill="#fe5805" d="M 1050.5,865.5 C 1051.12,865.611 1051.62,865.944 1052,866.5C 1063.56,898.168 1070.06,930.835 1071.5,964.5C 1028.26,1003.76 981.928,1038.76 932.5,1069.5C 917.06,1077.72 901.727,1086.22 886.5,1095C 864.072,1106.39 841.405,1116.89 818.5,1126.5C 765.358,1148.49 710.025,1158.99 652.5,1158C 610.912,1156.7 573.579,1143.7 540.5,1119C 536.376,1115.95 532.709,1112.45 529.5,1108.5C 531.997,1109.74 534.664,1110.41 537.5,1110.5C 562.783,1104.73 580.283,1089.73 590,1065.5C 592.134,1059.33 591.967,1053.33 589.5,1047.5C 602.768,1058.97 618.101,1066.47 635.5,1070C 658.46,1074.26 681.46,1074.43 704.5,1070.5C 744.206,1063.93 781.872,1051.6 817.5,1033.5C 881.73,1002.72 940.73,964.225 994.5,918C 1013.97,901.367 1032.63,883.867 1050.5,865.5 Z"/></g>
<g><path style="opacity:0.989" fill="#019946" d="M 1043.5,1047.5 C 1042.12,1050.31 1041.45,1053.31 1041.5,1056.5C 1046.77,1080.62 1060.77,1097.79 1083.5,1108C 1090.12,1111.09 1096.79,1111.26 1103.5,1108.5C 1080.19,1130.83 1052.52,1145.33 1020.5,1152C 982.52,1159.22 944.52,1159.22 906.5,1152C 876.209,1146.4 846.875,1137.9 818.5,1126.5C 841.405,1116.89 864.072,1106.39 886.5,1095C 901.727,1086.22 917.06,1077.72 932.5,1069.5C 963.668,1075.29 994.002,1072.45 1023.5,1061C 1030.71,1057.23 1037.38,1052.73 1043.5,1047.5 Z"/></g>
</svg>
