<svg xmlns="http://www.w3.org/2000/svg" fill="none" width="185px" height="30px" data-v-44556fad=""><g clip-path="url(#a)"><path fill="#2A3362" d="M59.9 6.8h-3.3v16.8H60V6.8Zm12.6 10.8C72.5 20 71 21 69 21s-3.3-1-3.3-3.3v-6h-3.3v6.8c0 3.3 2.1 5.3 5.6 5.3 2.2 0 3.4-.8 4.3-1.7h.2l.2 1.5h3V11.8h-3.2v5.8Zm31.9 3.6c-2.4 0-3.8-1-4-2.6h10.3l.1-1c0-4.3-3.2-6-6.6-6-4 0-7 2.3-7 6.2 0 3.6 2.9 6 7.2 6 3.6 0 6-1.6 6.5-4h-3.2c-.4 1-1.6 1.4-3.3 1.4Zm-.2-7c2 0 3.2.8 3.4 2.1h-7.1c.3-1.2 1.5-2.2 3.6-2.2Zm12.1-.7h-.2l-.3-1.7h-3v11.8h3.3v-5.1c0-2.3 1.3-3.6 3.8-3.6.4 0 .9 0 1.3.2v-3.3h-.4c-2.2 0-3.5.4-4.5 1.7Zm20.9 6.4h-.2l-2.8-7.4H131l-3 7.5h-.2l-2.6-8.1H122l4 11.8h3.5l2.9-7.6h.1l2.8 7.6h3.6l4-11.8h-3.3l-2.5 8Zm18.7.2v-4c0-3.1-2.7-4.6-6-4.6-3.7 0-5.9 1.7-6.2 4.3h3.2c.3-1.1 1.2-1.7 3-1.7 1.6 0 2.7.6 2.7 1.9v.3l-5.3.4c-2.4.2-4.2 1.3-4.2 3.6 0 2.4 2 3.5 5 3.5 2.5 0 4-.7 4.9-1.7h.2c.5 1.1 1.5 1.5 2.6 1.5h1.4v-2.4h-.3c-.7 0-1-.4-1-1Zm-3.3-1.2c0 1.8-2.2 2.5-4 2.5-1.4 0-2.2-.4-2.2-1.3 0-.8.7-1.2 1.8-1.3l4.5-.3v.4Zm15.4-7.1-3.9 8.5h-.2l-3.8-8.5h-3.5l5.5 11.8h3.8l5.5-11.8H168Zm13.8 7.9c-.4 1-1.6 1.5-3.3 1.5-2.4 0-3.7-1-4-2.6H185v-1c0-4.3-3.2-6-6.6-6-4 0-7 2.3-7 6.2 0 3.6 2.9 6 7.2 6 3.6 0 6-1.6 6.5-4h-3.2Zm-3.5-5.6c2 0 3.3 1 3.5 2.2h-7.2c.3-1.2 1.5-2.2 3.7-2.2ZM51.3 11c0-1.1.8-1.6 1.7-1.6.5 0 .9 0 1.3.2l.6-2.3c-.8-.3-1.7-.5-2.5-.5-2.4 0-4.3 1.3-4.3 4v1h-2.8v2.6H48v9.2h3.2v-9.2H55v-2.6h-3.7v-.9ZM83 8.5h-3.1l-.2 3.3h-2.5v2.6h2.4v5.8c0 2 1 3.6 4 3.6.9 0 1.7 0 2.4-.3v-2.4a7 7 0 0 1-1.3.1c-1.7 0-1.8-.9-1.8-1.6v-5.2h3.2v-2.6H83V8.5Zm10.1 0h-3l-.2 3.3h-2.5v2.6h2.5v5.8c0 2 1 3.6 4 3.6.8 0 1.6 0 2.3-.3v-2.4a7 7 0 0 1-1.3.1c-1.6 0-1.8-.9-1.8-1.6v-5.2h3.3v-2.6H93V8.5Z"></path><path fill="#009A46" d="M0 6.4c0-2 .6-3.5 1.7-4.7l2 2C1.5 6 3.4 13 9.8 19.3c6.4 6.4 13.4 8.4 15.6 6.2l2 2c-3.7 3.8-12.3 1-19.6-6.1-5-5-7.8-10.7-7.8-15Z"></path><path fill="#FF5805" d="M12.7 29.2c-1.9 0-3.5-.5-4.6-1.7l2-2c2.2 2.2 9.2.3 15.6-6.1C32 13 34 6 31.8 3.8l2-2c3.8 3.7 1.1 12.4-6.1 19.6-5 5-10.7 7.8-15 7.8Z"></path><path fill="#F5AFCB" d="M28.4 18.5a29.3 29.3 0 0 0-7-10.6C14 .6 5.3-2.1 1.6 1.7c-.3.3 0 1 .5 1.5.6.6 1.2.8 1.5.6 2.2-2.3 9.2-.3 15.6 6 3 3.1 5.3 6.5 6.4 9.6 1 2.8.8 5-.3 6-.2.3 0 1 .5 1.6.6.5 1.3.8 1.5.5 2-2 2.3-5.2 1-9Z"></path><path fill="#FF9B00" d="M33.8 1.7c-2-1.9-5.1-2.2-9-.9a29.3 29.3 0 0 0-10.6 7C7 15.2 4.2 23.9 8 27.6c.2.3.9 0 1.5-.5.5-.6.7-1.2.5-1.5-2.3-2.3-.3-9.2 6-15.6 3.1-3 6.5-5.3 9.6-6.4 2.8-1 5-.9 6.1.3.3.2 1 0 1.5-.6.5-.5.8-1.2.5-1.5Z"></path></g><defs><clipPath id="a"><path fill="#fff" d="M0 0h185v29.2H0z"></path></clipPath></defs></svg>