<svg xmlns="http://www.w3.org/2000/svg" fill="none" viewBox="0 0 40 40" width="40px" height="40px" class="overview-card__header__icon"><path fill="#FFF5E7" d="M26 0H14C6 0 0 6 0 14v12c0 8 6 14 14 14h12c8 0 14-6 14-14V14c0-8-6-14-14-14Z"></path><path fill="url(#a)" d="M20 19a5 5 0 1 0 0-10 5 5 0 0 0 0 10Z"></path><path fill="url(#b)" d="M20 18a4 4 0 1 0 0-7 4 4 0 0 0 0 7Z" opacity=".7"></path><path fill="url(#c)" d="M25 15H14c-2 0-4 2-4 4v6c0 2 2 4 4 4h11c3 0 5-2 5-4v-6c0-2-2-4-5-4Z"></path><path fill="#fff" d="M26 23a1 1 0 1 0 0-2 1 1 0 0 0 0 2Z"></path><path fill="#fff" d="M23 25c7-6 11-13 8-15-2-3-9 0-16 6-6 6-10 13-8 15 3 3 10 0 16-6Z" opacity=".4" style="mix-blend-mode: overlay;"></path><defs><linearGradient id="a" x1="14.9" x2="25.4" y1="14.1" y2="14.1" gradientUnits="userSpaceOnUse"><stop stop-color="#FF5708"></stop><stop offset="1" stop-color="#FD9808"></stop></linearGradient><linearGradient id="b" x1="16.7" x2="23.7" y1="14.1" y2="14.1" gradientUnits="userSpaceOnUse"><stop stop-color="#FDE7DD" stop-opacity="0"></stop><stop offset=".1" stop-color="#FDE3D1" stop-opacity=".1"></stop><stop offset=".6" stop-color="#FED5A3" stop-opacity=".6"></stop><stop offset=".9" stop-color="#FFCC85" stop-opacity=".9"></stop><stop offset="1" stop-color="#FFC97A"></stop></linearGradient><linearGradient id="c" x1="20" x2="19.9" y1="20.6" y2="47.5" gradientUnits="userSpaceOnUse"><stop stop-color="#232345"></stop><stop offset=".1" stop-color="#2F3154"></stop><stop offset=".4" stop-color="#50557A"></stop><stop offset=".8" stop-color="#8590B7"></stop><stop offset="1" stop-color="#A2B0D9"></stop></linearGradient></defs></svg>