<svg width="35px" height="30px" viewBox="0 0 36 30" fill="none" xmlns="http://www.w3.org/2000/svg" class="flw-logo__mobile"><path d="M0 6.3802C0 4.48884 0.553022 2.87403 1.71356 1.71338L3.73189 3.7319C1.48549 5.97044 3.44731 12.9303 9.84339 19.333C16.2395 25.7358 23.2027 27.6958 25.4471 25.4532L27.4654 27.4717C23.679 31.2585 15.0547 28.5718 7.83515 21.3495C2.82768 16.3396 0 10.6554 0 6.3802Z" fill="#009A46"></path><path d="M12.728 29.2119C10.8368 29.2119 9.22213 28.6588 8.05957 27.4982L10.0779 25.4796C12.3203 27.7222 19.2795 25.7602 25.6816 19.3595C32.0837 12.9587 34.0415 5.99889 31.7992 3.75631L33.8175 1.73779C37.6059 5.52454 34.9175 14.1497 27.6959 21.3699C22.6864 26.3859 17.0028 29.2119 12.728 29.2119Z" fill="#FF5805"></path><path d="M28.3631 18.4811C27.138 14.9528 24.6353 11.1822 21.3151 7.86374C14.0956 0.641473 5.47125 -2.04719 1.68486 1.74157C1.41642 2.01205 1.64853 2.68018 2.20559 3.23729C2.76265 3.7944 3.43072 4.02451 3.69915 3.75605C5.94353 1.51347 12.9027 3.47547 19.3029 9.87822C22.3303 12.906 24.5868 16.287 25.6747 19.4157C26.6274 22.1589 26.5345 24.3712 25.4244 25.4814C25.154 25.7498 25.3881 26.42 25.9432 26.9751C26.4982 27.5302 27.1683 27.7643 27.4387 27.4938C29.3783 25.554 29.7073 22.3486 28.3631 18.4811Z" fill="#F5AFCB"></path><path d="M33.8133 1.74193C31.8697 -0.201901 28.6686 -0.53092 24.7975 0.815433C21.2714 2.03866 17.4992 4.54364 14.181 7.86209C6.96148 15.0823 4.27307 23.7075 8.05945 27.4962C8.32991 27.7647 8.99798 27.5326 9.55503 26.9775C10.1121 26.4224 10.3442 25.7522 10.0737 25.4817C7.82533 23.2392 9.7932 16.2793 16.1953 9.87657C19.2228 6.84879 22.6035 4.59208 25.7319 3.5041C28.4748 2.55338 30.6869 2.64421 31.799 3.7544C32.0675 4.02286 32.7376 3.79073 33.2926 3.23362C33.8476 2.67651 34.0818 2.0104 33.8133 1.74193Z" fill="#FF9B00"></path></svg>