<svg xmlns="http://www.w3.org/2000/svg" fill="none" viewBox="0 0 40 40" width="40px" height="40px" class="overview-card__header__icon"><path fill="#D9F4E4" d="M26 0H14C6 0 0 6 0 14v12c0 8 6 14 14 14h12c8 0 14-6 14-14V14c0-8-6-14-14-14Z"></path><path fill="url(#a)" d="M24 13h-8c-3 0-5 3-5 5v8c0 3 2 5 5 5h8c3 0 5-2 5-5v-8c0-2-2-5-5-5Z"></path><path fill="url(#b)" d="M30 19H10c-2-1-2-2-1-3l4-5 1-1h12l2 1 3 5c1 1 1 2-1 3Z"></path><path fill="url(#c)" d="M31 16a2 2 0 0 1-1 1H13v-3l2-4h11l2 1 3 5Z" opacity=".4"></path><path fill="#fff" d="M23 23h-7a1 1 0 0 0 0 3h7a1 1 0 1 0 0-3Z"></path><path fill="#fff" d="M23 25c7-5 12-12 10-14-2-3-10-1-17 4C9 21 4 27 6 30s10 0 17-5Z" opacity=".4" style="mix-blend-mode: overlay;"></path><defs><linearGradient id="a" x1="20" x2="20.1" y1="22.1" y2="40.3" gradientUnits="userSpaceOnUse"><stop offset=".2" stop-color="#232345"></stop><stop offset=".4" stop-color="#3F4265"></stop><stop offset=".8" stop-color="#8691B8"></stop><stop offset="1" stop-color="#A2B0D9"></stop></linearGradient><linearGradient id="b" x1="8.2" x2="31.8" y1="15" y2="15" gradientUnits="userSpaceOnUse"><stop stop-color="#019945"></stop><stop offset="1" stop-color="#2A3362"></stop></linearGradient><linearGradient id="c" x1="29" x2="9.8" y1="14.4" y2="13.2" gradientUnits="userSpaceOnUse"><stop stop-color="#FDE7DD" stop-opacity="0"></stop><stop offset=".5" stop-color="#B5DAB2" stop-opacity=".5"></stop><stop offset=".8" stop-color="#7FD092" stop-opacity=".9"></stop><stop offset="1" stop-color="#6ACC85"></stop></linearGradient></defs></svg>